# xmcd CD database file
#
# Track frame offsets:
#	150
#	18307
#	34765
#	52716
#	64081
#	80492
#	104120
#	113139
#	125767
#	137679
#
# Disc length: 2189 seconds
#
# Revision: 0
# Processed by: cddbd v1.5.2PL0 Copyright (c) Steve Scherf et al.
# Submitted via: CDex 1.70beta2
#
DISCID=85088b0a
DTITLE=Saxophobia - Jazz Standards for Sax Quartet
DYEAR=2007
DGENRE=Jazz
TTITLE0=01 L-O-V-E
TTITLE1=02 Watermelon
TTITLE2=03 Besame Mucho
TTITLE3=04 Someone to Watch Over Me
TTITLE4=05 Summertime
TTITLE5=06 So Many Stars
TTITLE6=07 TEQUILA
TTITLE7=08 Just Saqueeze Me
TTITLE8=09 Aura Lee
TTITLE9=10 Bonus Track Oh! My Country
EXTD=YEAR: 2007
EXTT0=
EXTT1=
EXTT2=
EXTT3=
EXTT4=
EXTT5=
EXTT6=
EXTT7=
EXTT8=
EXTT9=
PLAYORDER=
